<?xml version="1.0" encoding="utf-8"?>
<!-- Generator: Adobe Illustrator 18.0.0, SVG Export Plug-In . SVG Version: 6.00 Build 0)  -->
<!DOCTYPE svg PUBLIC "-//W3C//DTD SVG 1.1//EN" "http://www.w3.org/Graphics/SVG/1.1/DTD/svg11.dtd">
<svg version="1.1" id="Слой_1" xmlns="http://www.w3.org/2000/svg" xmlns:xlink="http://www.w3.org/1999/xlink" x="0px" y="0px"
	 viewBox="313.3 0 454.7 1024" enable-background="new 313.3 0 454.7 1024" xml:space="preserve">
<path fill="#000000"      d="
	M589.4,75.4c0,0,16.7-0.7-2.6,31c0,0-4.8,4.7-6.7,1.6c0,0-0.9,10.1-5.2,14v30.8c0,0,3,10.7,40.9,20.4c0,0,52.2,8.3,59.9,35.8
	c0,0,9.5,28.6,6.4,55.3c0,0-0.3,4.6,2.4,13.5c0,0,7.4,18.9,9.7,58.7c0,0,2.1,5.4,5.9,13.5c0,0,9.1,10.8,16,100.5
	c0,0,4.1,26.3,6.8,30.5c0,0,16.1,10,19.6,17c0,0,3.2,3.3,8.1,5.8c0,0,4,2.3,7.2,8.9c0,0,3.6,8.1,6,12c0,0-2.7,10-15.8-3.9l-3.9-1.9
	c0,0,1.5,28.3,2.3,33.3c0,0,2.5,32.8-9.4,26.3c0,0,1.7,11.4-6.1,11.4c0,0-4.2-0.9-5-4.8c0,0-6.7,9.3-11.3-14.7l-4.6-18.9
	c0,0,2.3,25.5-3.9,27c0,0-4,2.7-6.7-21.3c0,0-4.5-13.2-3.7-15.5c0,0-5.4-14.3-5-31.3c0,0,0.8-10.8,2.7-13.1c0,0-2.1-24-23.2-57.6
	c0,0-24.2-31.7-24.2-85.8c0,0-5.4-32.1-11.2-39.8c0,0-22.4,37.9-13.9,80c0,0,3.5,24.7,1.9,37.5c0,0,20.5,70.3,19.7,100.8
	c0,0,6.4,111.3-5.8,147.3c0,0-1.4,8.5,0.6,15.8c0,0,4.6,12.8,2.3,42.5c0,0,2,17.4,4.4,25.8c0,0,7.6,52.3-7.1,92.5
	c0,0-15.1,50.7-12.4,68.9c0,0,4.2,18.8,0,29.2c0,0,3.5,17.4,10.8,26.3c0,0,6.6,6.2,6.6,17.4c0,0,2.1,10.4-5.6,12.4
	c0,0-2.3,5.8-6.6,4.2c0,0-1.9,4.2-7,3.1c0,0-8.1,7-12.4,0.2c0,0-5.8,11.4-16.6,0.2c0,0-12.9-17-6.8-29c0,0,1.9-8.9-1.2-16.2
	c0,0-3.1-11.2-0.8-15.8c0,0-3.5-15.8,1.5-28.2c0,0,4.6-29.4,2.7-47.1c0,0-4.2-24-7.7-32.1c0,0-8.1-44.5,0.8-71.9
	c0,0,5.4-16.6,0.4-32.8c0,0-7.4-17.8-8.3-43.6c0,0-7.5-15.8-7.9-35.1c0,0-2.1-58.5-11.4-79.7c0,0-7.3-22-4.8-51.8h-12.7
	c2.5,29.8-4.8,51.8-4.8,51.8c-9.3,21.3-11.4,80-11.4,80c-0.4,19.3-7.9,35-7.9,35c-0.9,25.9-8.3,43.6-8.3,43.6
	c-5,16.2,0.4,32.8,0.4,32.8c8.9,27.4,0.8,71.9,0.8,71.9c-3.5,8.1-7.7,32.1-7.7,32.1c-1.9,17.8,2.7,47.1,2.7,47.1
	c5,12.4,1.5,28.2,1.5,28.2c2.3,4.6-0.8,15.8-0.8,15.8c-3.1,7.3-1.2,16.2-1.2,16.2c6.2,12-6.8,29-6.8,29
	c-10.8,11.2-16.6-0.2-16.6-0.2c-4.3,6.8-12.4-0.2-12.4-0.2c-5,1.2-7-3.1-7-3.1c-4.3,1.5-6.6-4.2-6.6-4.2c-7.7-1.9-5.6-12.4-5.6-12.4
	c0-11.2,6.6-17.4,6.6-17.4c7.3-8.9,10.8-26.3,10.8-26.3c-4.2-10.4,0-29.2,0-29.2c2.7-18.2-12.4-68.9-12.4-68.9
	c-14.7-40.2-7.1-92.5-7.1-92.5c2.4-8.4,4.4-25.8,4.4-25.8c-2.3-29.7,2.3-42.5,2.3-42.5c1.9-7.3,0.6-15.8,0.6-15.8
	c-12.1-35.9-5.8-147.3-5.8-147.3c-0.8-30.5,19.7-100.8,19.7-100.8c-1.5-12.7,1.9-37.5,1.9-37.5c8.5-42.1-13.9-80-13.9-80
	c-5.8,7.7-11.2,39.8-11.2,39.8c0,54.1-24.2,85.8-24.2,85.8c-21.1,33.6-23.2,57.6-23.2,57.6c1.9,2.3,2.7,13.1,2.7,13.1
	c0.4,17-5,30.2-5,30.2c0.8,2.3-3.7,16.6-3.7,16.6c-2.7,24-6.7,21.3-6.7,21.3c-6.2-1.5-3.9-27-3.9-27l-4.6,18.9
	c-4.6,24-11.3,14.7-11.3,14.7c-0.8,3.9-5,4.8-5,4.8c-7.7,0-6.1-11.4-6.1-11.4c-11.9,6.6-9.4-26.3-9.4-26.3c0.8-5,2.3-33.3,2.3-33.3
	l-3.9,1.9c-13.1,13.9-15.8,3.9-15.8,3.9c2.3-3.9,6-12,6-12c3.2-6.5,7.2-8.9,7.2-8.9c4.9-2.5,8.1-5.8,8.1-5.8c3.5-7,19.6-17,19.6-17
	c2.7-4.2,6.8-30.5,6.8-30.5c6.9-89.6,16-100.5,16-100.5c3.9-8.1,5.9-13.5,5.9-13.5c2.3-39.8,9.7-58.7,9.7-58.7
	c2.7-8.9,2.3-13.5,2.3-13.5c-3.1-26.7,6.2-55.3,6.2-55.3c7.7-27.4,58.8-35.8,58.8-35.8c37.9-9.7,39.3-20.4,39.3-20.4V122
	c-4.3-3.9-3.6-14-3.6-14c-1.9,3.1-5.5-1.6-5.5-1.6c-19.3-31.7-2.5-31-2.5-31s-6.6-8.3-4.7-18.7c0,0-5.8-32.5,19.4-39
	c0,0,0.4-8.1,9.7-10.8c0,0-5,3.5-1.5,4.6c0,0,18.9-13.1,32.1-4.6c0,0,24.7-5.2,36.3,22.6c0,0,8.5,7.5,4.7,21.4
	C594.2,50.9,599.8,62,589.4,75.4z"/>
</svg>
